<?xml version="1.0" encoding="iso-8859-1"?>
<!-- Uploaded to: SVG Repo, www.svgrepo.com, Generator: SVG Repo Mixer Tools -->
<!DOCTYPE svg PUBLIC "-//W3C//DTD SVG 1.1//EN" "http://www.w3.org/Graphics/SVG/1.1/DTD/svg11.dtd">
<svg fill="#000000" version="1.1" id="Capa_1" xmlns="http://www.w3.org/2000/svg" xmlns:xlink="http://www.w3.org/1999/xlink" 
	 width="800px" height="800px" viewBox="0 0 20.76 20.76" xml:space="preserve"
	>
<g>
	<g>
		<path d="M1.88,18.76c0,1.101,0.9,2,2,2h4.5V10.281h-6.5V18.76z"/>
		<path d="M12.38,20.76h4.5c1.1,0,2-0.899,2-2v-8.479h-6.5V20.76z"/>
		<path d="M17.255,4.26H14c0.103-0.012,0.2-0.024,0.307-0.036c2.113-0.237,3.798-1.001,3.798-2.971c0-0.657-0.949-1.532-2.567-1.167
			c-1.607,0.363-3.683,2.152-4.256,3.078c-0.147-0.354-0.495-0.6-0.901-0.6c-0.405,0-0.753,0.246-0.9,0.598
			C8.906,2.238,6.83,0.448,5.223,0.086c-1.618-0.365-2.568,0.51-2.568,1.167c0,1.97,1.685,2.733,3.798,2.971
			C6.559,4.236,6.658,4.248,6.76,4.26H3.506c-1.169,0-2.126,0.956-2.126,2.125v2.896h7V4.219h1.5V20.76h1V4.219h1.5v5.062h7V6.385
			C19.38,5.216,18.423,4.26,17.255,4.26z M6.73,3.906c-1.565-0.176-2.813-0.74-2.813-2.199c0-0.487,0.704-1.135,1.902-0.864
			c1.392,0.314,3.268,2.08,3.268,2.567C9.088,3.895,8.148,4.066,6.73,3.906z M11.673,3.409c0-0.487,1.876-2.253,3.268-2.567
			c1.197-0.271,1.901,0.377,1.901,0.864c0,1.459-1.247,2.023-2.813,2.199C12.612,4.066,11.673,3.895,11.673,3.409z"/>
	</g>
</g>
</svg>